<?xml version="1.0" encoding="UTF-8" standalone="no"?>
<svg
   xmlns:dc="http://purl.org/dc/elements/1.1/"
   xmlns:cc="http://creativecommons.org/ns#"
   xmlns:rdf="http://www.w3.org/1999/02/22-rdf-syntax-ns#"
   xmlns:svg="http://www.w3.org/2000/svg"
   xmlns="http://www.w3.org/2000/svg"
   xmlns:sodipodi="http://sodipodi.sourceforge.net/DTD/sodipodi-0.dtd"
   xmlns:inkscape="http://www.inkscape.org/namespaces/inkscape"
   width="4.2333331mm"
   height="12.170834mm"
   viewBox="0 0 4.2333331 12.170834"
   version="1.1"
   id="svg8"
   inkscape:version="1.0.2 (1.0.2+r75+1)"
   sodipodi:docname="radios.svg">
  <defs
     id="defs2" />
  <sodipodi:namedview
     id="base"
     pagecolor="#ffffff"
     bordercolor="#666666"
     borderopacity="1.0"
     inkscape:pageopacity="0.0"
     inkscape:pageshadow="2"
     inkscape:zoom="5.6"
     inkscape:cx="30.480508"
     inkscape:cy="57.779497"
     inkscape:document-units="mm"
     inkscape:current-layer="layer1"
     inkscape:document-rotation="0"
     showgrid="false"
     inkscape:window-width="1920"
     inkscape:window-height="1052"
     inkscape:window-x="0"
     inkscape:window-y="0"
     inkscape:window-maximized="1"
     fit-margin-top="0"
     fit-margin-left="0"
     fit-margin-right="0"
     fit-margin-bottom="0" />
  <metadata
     id="metadata5">
    <rdf:RDF>
      <cc:Work
         rdf:about="">
        <dc:format>image/svg+xml</dc:format>
        <dc:type
           rdf:resource="http://purl.org/dc/dcmitype/StillImage" />
        <dc:title></dc:title>
      </cc:Work>
    </rdf:RDF>
  </metadata>
  <g
     inkscape:label="Layer 1"
     inkscape:groupmode="layer"
     id="layer1"
     transform="translate(-53.289)">
    <g
       style="fill:none"
       id="g107"
       transform="matrix(0.26458333,0,0,0.26458333,173.70927,334.17341)">
      <path
         fill-rule="evenodd"
         clip-rule="evenodd"
         d="M 8.5,16 C 12.6421,16 16,12.6421 16,8.5 16,4.35786 12.6421,1 8.5,1 4.35786,1 1,4.35786 1,8.5 1,12.6421 4.35786,16 8.5,16 Z"
         stroke="#979797"
         id="path96" />
    </g>
    <g
       style="fill:none"
       id="g120"
       transform="matrix(0.26458333,0,0,0.26458333,53.156708,7.8052083)">
      <path
         fill-rule="evenodd"
         clip-rule="evenodd"
         d="m 8.5,16.5 c 4.4183,0 8,-3.5817 8,-8 0,-4.41828 -3.5817,-8 -8,-8 -4.41828,0 -8,3.58172 -8,8 0,4.4183 3.58172,8 8,8 z"
         fill="#969696"
         id="path109" />
    </g>
    <g
       style="fill:none"
       id="g225"
       transform="matrix(0.26458333,0,0,0.26458333,53.156708,-0.13229156)">
      <path
         fill-rule="evenodd"
         clip-rule="evenodd"
         d="M 8.5,16 C 12.6421,16 16,12.6421 16,8.5 16,4.35786 12.6421,1 8.5,1 4.35786,1 1,4.35786 1,8.5 1,12.6421 4.35786,16 8.5,16 Z"
         stroke="#979797"
         id="path214" />
    </g>
  </g>
</svg>
